<?xml version="1.0" standalone="no"?>
<!DOCTYPE svg PUBLIC "-//W3C//DTD SVG 20010904//EN"
 "http://www.w3.org/TR/2001/REC-SVG-20010904/DTD/svg10.dtd">
<svg version="1.0" xmlns="http://www.w3.org/2000/svg"
 width="1024.000000pt" height="1024.000000pt" viewBox="0 0 1024.000000 1024.000000"
 preserveAspectRatio="xMidYMid meet">

<g transform="translate(0.000000,1024.000000) scale(0.100000,-0.100000)"
fill="#000000" stroke="none">
<path d="M3090 7896 c-41 -12 -127 -42 -190 -65 -63 -24 -173 -65 -245 -91
-71 -27 -278 -108 -460 -180 -488 -195 -477 -192 -580 -197 -74 -4 -118 0
-247 26 -199 39 -315 42 -352 9 -13 -13 -61 -90 -106 -173 -46 -82 -106 -190
-135 -240 -99 -170 -103 -189 -58 -274 27 -49 338 -374 405 -423 16 -10 28
-23 28 -27 0 -4 -21 -21 -47 -38 -86 -53 -256 -194 -349 -288 -110 -111 -133
-158 -115 -231 30 -117 172 -364 309 -537 87 -108 319 -345 427 -435 50 -42
127 -99 171 -128 111 -72 117 -92 94 -338 -11 -117 -6 -140 34 -134 19 3 21
10 22 63 0 33 6 73 12 88 15 36 15 229 1 282 -15 53 -28 67 -134 137 -161 108
-295 231 -489 452 -137 156 -297 410 -340 539 -14 42 -14 51 -2 75 44 83 271
280 463 402 98 62 119 82 108 100 -3 5 -38 30 -78 57 -81 54 -372 334 -417
402 -17 24 -30 54 -30 65 0 18 196 378 266 489 23 35 27 37 79 37 31 0 126
-14 212 -31 207 -40 301 -40 421 0 48 16 191 73 317 126 127 53 298 123 380
155 83 32 182 72 220 88 39 15 161 60 272 98 161 55 206 67 220 58 22 -13 84
-164 90 -219 4 -31 -6 -69 -42 -165 -57 -154 -78 -239 -63 -257 6 -7 27 -13
48 -13 20 0 59 -7 86 -15 27 -8 57 -15 66 -15 11 0 46 37 87 93 148 197 309
332 504 422 149 69 303 87 437 52 142 -37 335 -156 483 -297 57 -54 82 -71 92
-65 7 6 68 58 136 117 94 81 131 108 152 108 45 0 175 -55 437 -185 255 -127
397 -214 465 -284 21 -23 45 -41 51 -41 7 0 33 26 58 58 84 108 193 202 366
315 120 78 402 247 413 247 16 0 165 -323 230 -500 36 -96 79 -209 96 -250 17
-41 31 -76 31 -77 0 -2 7 -3 15 -3 19 0 35 33 75 155 65 197 69 202 199 269
85 43 409 176 430 176 13 0 22 -22 113 -265 146 -390 159 -403 212 -217 37
132 86 258 160 415 63 132 66 137 113 160 53 27 275 111 398 151 88 28 343 96
363 96 25 0 10 -47 -59 -194 -291 -615 -360 -933 -319 -1473 17 -217 47 -347
152 -642 47 -132 67 -200 61 -212 -4 -9 -92 -112 -195 -228 l-188 -210 -117
-37 c-65 -20 -153 -54 -196 -76 -43 -21 -81 -37 -86 -34 -15 10 -271 437 -271
454 0 13 -39 62 -50 62 -14 0 -30 -61 -30 -117 0 -46 7 -65 40 -122 111 -187
115 -339 14 -540 -52 -104 -163 -229 -304 -341 -108 -86 -117 -106 -69 -157
52 -54 243 -204 349 -273 179 -117 372 -200 555 -239 133 -29 165 -40 165 -57
0 -17 -50 -80 -265 -339 -82 -100 -197 -241 -254 -314 -103 -131 -146 -171
-186 -171 -26 0 -151 69 -235 128 -94 67 -278 249 -468 467 -244 277 -280 313
-292 295 -6 -9 -7 -82 -4 -190 l6 -175 -99 -97 c-54 -53 -111 -100 -125 -103
-35 -9 -78 6 -213 72 -135 67 -142 67 -320 -11 -217 -95 -234 -101 -250 -85
-15 16 -61 221 -100 439 -14 80 -32 169 -41 198 -14 50 -16 52 -50 52 -57 0
-122 -21 -149 -47 -17 -18 -38 -67 -66 -157 -22 -72 -45 -144 -51 -160 -14
-35 -38 -46 -285 -126 -103 -34 -294 -99 -424 -146 -130 -46 -242 -84 -247
-84 -18 0 -26 71 -13 120 6 25 29 83 51 128 22 46 40 86 40 89 0 11 -75 -14
-201 -67 -137 -59 -198 -91 -298 -159 -31 -21 -70 -45 -88 -54 l-31 -16 -38
47 c-70 85 -98 97 -175 70 -48 -16 -185 -98 -311 -184 -59 -41 -112 -74 -119
-74 -17 0 -167 130 -237 205 -58 62 -61 67 -82 162 -57 255 -105 240 -147 -46
-9 -64 -21 -121 -27 -128 -6 -7 -72 -31 -146 -54 -141 -43 -339 -132 -426
-191 l-51 -35 -29 24 c-16 13 -91 66 -166 118 -75 52 -139 99 -142 104 -3 5 5
67 18 137 53 283 59 523 17 723 -48 225 -151 480 -260 639 -73 107 -105 139
-117 120 -5 -7 -12 -143 -15 -303 -4 -159 -10 -323 -14 -362 -8 -80 1 -103 40
-103 47 0 50 16 55 289 l5 256 46 -95 c57 -116 121 -288 154 -415 27 -104 49
-317 40 -398 -2 -29 -8 -79 -11 -112 -3 -33 -19 -126 -35 -208 -34 -170 -35
-190 -13 -225 17 -29 358 -264 411 -284 29 -11 36 -9 115 44 123 83 252 143
431 203 87 30 161 55 163 57 1 2 11 22 21 45 l19 40 44 -51 c42 -48 182 -179
242 -226 15 -11 42 -27 61 -35 l34 -14 182 122 c290 194 282 191 335 116 62
-88 123 -100 212 -40 156 103 326 201 348 201 2 0 0 -17 -6 -37 -13 -48 -4
-162 16 -201 8 -16 29 -35 46 -42 29 -12 45 -9 213 48 100 34 317 107 482 162
310 105 372 132 393 172 6 13 32 88 56 167 42 136 55 160 82 161 7 0 19 -41
29 -97 40 -231 97 -501 113 -533 11 -22 32 -42 56 -54 51 -25 75 -19 287 75
186 82 167 82 339 4 200 -92 218 -88 378 69 63 61 119 120 125 131 7 11 14 56
17 100 l5 80 49 -60 c87 -107 339 -375 416 -443 51 -44 78 -75 83 -96 4 -17
10 -95 14 -174 6 -146 15 -178 47 -166 20 8 26 51 26 180 0 63 3 114 6 114 3
0 23 -12 45 -27 l39 -28 1 -120 c1 -66 4 -174 8 -240 6 -120 6 -120 31 -120
23 0 25 5 31 55 3 30 4 130 1 222 l-5 167 43 -15 c38 -13 48 -13 99 1 69 20
117 67 281 276 63 80 167 208 230 284 63 76 141 170 174 209 32 39 65 86 73
104 25 60 -7 141 -65 163 -14 6 -78 21 -141 34 -147 30 -233 60 -396 141 -128
63 -288 171 -408 275 l-57 50 77 63 c146 119 260 257 313 381 24 57 60 193 61
232 l0 28 17 -25 c31 -46 70 -80 93 -80 13 0 75 25 140 55 64 30 154 65 200
77 77 21 89 27 153 88 78 73 377 405 395 438 19 35 13 64 -54 256 -125 362
-151 475 -165 731 -24 457 49 779 298 1295 110 231 127 287 101 344 -7 13 -25
30 -41 37 -27 11 -49 8 -182 -25 -183 -46 -350 -100 -537 -171 -222 -85 -217
-81 -299 -248 -39 -78 -90 -191 -114 -251 -32 -81 -45 -104 -50 -90 -5 11 -25
69 -47 131 -44 126 -111 278 -136 305 -9 10 -24 18 -34 18 -43 0 -505 -192
-587 -244 -61 -38 -90 -74 -118 -148 -14 -38 -29 -68 -32 -68 -4 0 -22 44 -40
98 -87 255 -235 555 -286 580 -24 12 -33 11 -89 -16 -62 -29 -449 -281 -562
-366 -33 -24 -95 -76 -138 -115 -42 -39 -81 -71 -86 -71 -5 0 -53 30 -108 66
-103 69 -559 302 -694 354 -43 16 -101 35 -128 41 -60 13 -90 0 -165 -71 -66
-62 -123 -100 -151 -100 -12 0 -48 21 -81 48 -155 123 -336 224 -459 256 -142
36 -252 31 -406 -20 -191 -62 -456 -261 -608 -456 -52 -67 -64 -74 -108 -62
-31 9 -30 39 7 130 32 81 60 179 60 213 0 23 -59 180 -91 242 -22 44 -64 79
-93 78 -11 0 -55 -10 -96 -23z"/>
<path d="M2850 7631 c-107 -38 -323 -121 -480 -185 -530 -217 -626 -254 -690
-267 -104 -19 -278 -13 -410 15 -105 22 -117 23 -132 9 -10 -9 -55 -79 -102
-157 -99 -167 -106 -181 -106 -198 0 -26 100 -127 175 -177 98 -65 158 -79
263 -62 141 24 329 88 544 185 l57 25 20 -67 c75 -254 148 -682 167 -977 7
-113 -9 -306 -31 -382 -38 -128 -198 -188 -352 -132 -115 42 -242 208 -274
359 -6 30 -9 84 -6 122 10 123 106 364 191 483 23 31 32 53 26 59 -24 24 -266
-75 -412 -169 -110 -71 -375 -273 -408 -312 -17 -18 -30 -44 -30 -56 0 -47 94
-218 189 -342 109 -144 433 -452 563 -536 111 -72 303 -99 443 -64 236 60 402
245 475 528 19 76 39 275 41 400 l0 72 24 -87 c89 -322 301 -475 577 -417 243
51 465 334 541 688 27 126 29 410 4 547 -62 336 -252 534 -512 534 -140 0
-248 -52 -358 -170 -176 -190 -272 -456 -286 -790 -6 -135 -8 -156 -15 -115
-23 144 -82 420 -140 660 -36 149 -68 280 -71 292 -5 20 5 28 73 62 96 48 259
103 406 136 60 13 113 28 117 32 4 4 9 62 11 129 l3 120 63 128 c56 115 66
147 44 145 -4 0 -95 -31 -202 -68z m421 -934 c37 -25 93 -111 110 -167 47
-164 22 -456 -55 -646 -63 -156 -138 -239 -213 -237 -168 5 -234 338 -139 707
79 304 180 422 297 343z"/>
<path d="M3226 6253 c-46 -154 -66 -245 -66 -305 0 -41 4 -68 11 -68 25 0 76
184 86 307 5 72 4 83 -10 83 -9 0 -18 -8 -21 -17z"/>
<path d="M9100 7591 c-250 -84 -313 -112 -335 -145 -34 -51 -95 -421 -115
-691 -11 -152 -12 -559 -1 -723 3 -56 3 -102 0 -102 -3 0 -47 84 -97 188 -239
493 -345 760 -452 1130 -12 41 -28 76 -37 79 -29 11 -353 -140 -395 -184 -22
-24 -23 -31 -31 -276 -4 -139 -7 -336 -5 -440 3 -163 1 -186 -12 -181 -8 4
-48 9 -87 12 l-73 4 -20 72 c-11 39 -67 213 -124 386 -184 559 -285 810 -326
810 -24 0 -190 -93 -325 -182 -103 -69 -165 -124 -165 -149 0 -10 27 -50 60
-91 33 -40 60 -82 60 -93 0 -11 -14 -77 -30 -145 -113 -462 -323 -1049 -474
-1325 -63 -115 -75 -145 -59 -145 15 0 468 152 476 160 5 4 26 56 48 116 21
59 43 112 47 116 4 4 75 21 157 38 83 16 201 42 263 57 67 15 117 22 122 17
23 -24 110 -374 126 -506 4 -32 12 -62 18 -67 6 -6 56 -17 111 -26 55 -9 142
-28 192 -42 144 -40 144 -41 72 251 -22 89 -60 232 -85 320 -24 87 -43 160
-42 161 13 11 57 27 138 50 52 15 103 32 113 37 18 9 18 11 -5 35 -12 15 -16
23 -8 18 34 -18 50 -40 50 -66 0 -30 -36 -63 -122 -113 -57 -32 -57 -35 -28
-206 20 -118 108 -519 116 -532 12 -18 61 -5 154 42 98 49 100 51 100 85 0 19
-9 75 -19 123 -38 171 -67 499 -74 840 -2 95 -2 170 1 168 2 -3 35 -72 72
-153 276 -607 345 -751 454 -951 68 -125 135 -250 149 -277 14 -28 34 -61 45
-75 l19 -24 129 94 c328 238 334 243 334 275 0 11 -25 95 -55 185 -117 347
-130 428 -129 805 0 288 1 305 28 430 47 222 155 525 268 749 47 94 54 126 26
126 -7 0 -105 -31 -218 -69z m-2160 -934 c32 -71 147 -409 152 -447 3 -25 1
-25 -82 -31 -47 -4 -125 -14 -173 -24 -49 -9 -91 -14 -93 -12 -3 3 22 89 54
193 33 104 70 233 83 287 12 53 25 97 27 97 2 0 16 -28 32 -63z m734 -447 c10
-13 9 -13 -6 -1 -10 7 -18 21 -17 30 0 13 1 14 6 1 3 -8 11 -22 17 -30z m116
-46 c0 -2 -9 0 -20 6 -11 6 -20 13 -20 16 0 2 9 0 20 -6 11 -6 20 -13 20 -16z
m-10 -20 c0 -2 -9 0 -20 6 -11 6 -20 13 -20 16 0 2 9 0 20 -6 11 -6 20 -13 20
-16z m75 -24 c10 -11 16 -20 13 -20 -3 0 -13 9 -23 20 -10 11 -16 20 -13 20 3
0 13 -9 23 -20z m5 -94 c0 -2 -8 -10 -17 -17 -16 -13 -17 -12 -4 4 13 16 21
21 21 13z"/>
<path d="M4158 7620 c-173 -29 -394 -159 -538 -317 -48 -53 -90 -110 -90 -123
0 -3 34 -28 75 -55 77 -50 113 -92 134 -157 7 -21 17 -40 22 -43 5 -4 27 22
49 57 l40 63 0 -60 c0 -75 -30 -337 -75 -655 -67 -474 -93 -698 -106 -890 -4
-74 -11 -154 -15 -177 -8 -59 8 -57 115 13 47 31 136 87 196 124 147 91 148
93 134 200 -17 121 -17 456 0 472 14 14 97 -69 447 -443 217 -233 357 -367
392 -376 31 -7 68 32 170 182 91 132 125 192 117 205 -4 6 -43 29 -88 52 -114
57 -168 93 -273 184 -127 111 -394 357 -394 364 0 3 47 39 105 79 170 119 290
260 339 400 24 71 34 280 16 364 -28 138 -139 295 -275 393 -87 62 -217 120
-307 139 -83 16 -117 17 -190 5z m182 -491 c59 -15 113 -52 145 -97 28 -41 30
-49 30 -140 0 -89 -3 -102 -30 -152 -16 -30 -66 -91 -110 -136 -76 -77 -206
-174 -232 -174 -16 0 -16 39 -3 146 5 43 21 174 35 289 14 116 28 227 31 248
l6 39 47 -7 c25 -3 62 -11 81 -16z"/>
<path d="M4307 6723 c-11 -10 -8 -43 3 -43 9 0 30 31 30 44 0 8 -25 7 -33 -1z"/>
<path d="M5120 7358 c-66 -62 -120 -117 -120 -124 0 -7 24 -47 53 -89 96 -139
91 -96 52 -455 -49 -454 -63 -571 -85 -702 -11 -64 -17 -123 -14 -133 4 -9 67
-61 141 -116 74 -56 137 -107 140 -115 4 -12 -55 -117 -127 -224 -56 -83 -48
-85 115 -25 55 20 170 57 255 81 382 111 640 295 762 544 61 125 89 237 95
380 6 154 -16 261 -78 382 -68 130 -247 313 -389 397 -165 98 -618 311 -661
311 -10 0 -73 -50 -139 -112z m450 -490 c81 -45 171 -108 204 -142 53 -57 106
-149 133 -230 34 -103 38 -260 9 -343 -54 -158 -242 -300 -444 -335 -39 -6
-73 -10 -76 -7 -2 2 11 202 30 444 18 242 36 488 40 548 8 123 3 120 104 65z"/>
<path d="M5606 6368 c-12 -35 -46 -309 -46 -365 0 -45 26 -43 80 5 38 33 44
44 51 95 4 32 3 85 -1 119 -13 91 -70 190 -84 146z"/>
<path d="M1873 6359 c-18 -5 -34 -13 -37 -18 -3 -5 12 -55 35 -111 22 -56 45
-130 51 -166 l11 -64 -46 -68 c-63 -91 -84 -142 -97 -241 -17 -125 -1 -191 63
-258 51 -54 132 -54 167 0 23 35 26 312 5 462 -24 178 -74 427 -91 453 -16 24
-15 24 -61 11z m63 -857 c-11 -10 -36 21 -46 56 -12 44 3 157 28 210 l17 37 3
-149 c1 -82 0 -151 -2 -154z"/>
<path d="M4868 6183 c-72 -75 -74 -83 -27 -129 35 -35 41 -37 55 -23 8 9 24
51 35 94 31 119 13 136 -63 58z"/>
<path d="M6872 5485 c-80 -22 -199 -80 -211 -103 -13 -24 -14 -59 -3 -65 4 -3
57 3 117 13 61 11 124 19 141 20 44 0 56 19 52 87 -3 68 -10 71 -96 48z"/>
<path d="M4287 5434 c-3 -32 -2 -65 4 -75 15 -29 127 -40 136 -14 4 14 -100
139 -118 143 -13 2 -17 -10 -22 -54z"/>
<path d="M6225 5272 c-110 -37 -218 -76 -240 -87 -46 -23 -57 -43 -147 -270
-32 -82 -88 -215 -123 -295 -35 -80 -90 -210 -122 -290 -127 -310 -125 -303
-78 -312 11 -2 21 -12 23 -24 3 -18 -73 -254 -127 -395 -29 -76 -47 -90 -126
-98 -75 -8 -74 -7 -111 -106 -15 -38 -46 -112 -70 -162 -23 -51 -40 -95 -36
-97 4 -2 45 13 91 35 96 45 186 74 288 94 39 7 89 23 111 34 40 20 40 20 100
203 33 101 69 203 80 229 l20 45 198 39 c110 21 219 39 244 39 l45 1 8 -55 c5
-30 30 -165 57 -300 27 -135 51 -268 55 -297 4 -28 13 -60 20 -70 13 -17 16
-17 57 6 107 59 178 94 247 119 41 15 78 34 84 43 8 13 -10 83 -71 285 l-81
269 15 85 c8 47 21 113 29 148 26 109 25 111 -47 114 l-63 3 -38 265 c-34 240
-38 293 -45 565 -7 290 -8 300 -27 302 -11 1 -110 -28 -220 -65z m-81 -669 c4
-54 16 -174 27 -267 14 -110 18 -171 11 -178 -5 -5 -59 -18 -118 -28 -60 -10
-129 -23 -154 -29 -24 -5 -46 -9 -47 -7 -11 11 251 606 267 606 4 0 10 -44 14
-97z"/>
<path d="M6930 5274 c-106 -14 -286 -47 -294 -54 -12 -12 -2 -318 11 -331 6
-6 47 -16 92 -21 l81 -11 0 -31 c0 -17 -7 -74 -14 -126 -8 -52 -26 -183 -41
-290 -14 -107 -37 -260 -52 -340 -39 -220 -37 -263 27 -455 29 -88 70 -206 92
-262 l39 -102 65 -35 c36 -20 71 -36 79 -36 21 0 23 20 29 265 6 208 29 521
40 533 3 3 27 -12 53 -32 112 -87 243 -220 395 -399 179 -211 307 -343 501
-519 144 -130 211 -172 253 -162 64 16 229 143 362 276 72 74 132 140 132 146
0 12 -11 16 -95 33 -280 55 -616 255 -915 544 -74 71 -166 158 -204 193 -37
35 -66 65 -65 66 2 2 54 22 115 44 138 50 215 88 322 159 256 169 289 433 80
645 -175 177 -524 295 -893 303 -88 2 -176 1 -195 -1z m435 -409 c147 -31 251
-90 290 -166 32 -61 3 -148 -68 -202 -81 -62 -344 -175 -437 -189 -28 -3 -28
-13 -10 132 12 106 54 344 70 403 10 34 14 37 48 37 20 0 69 -7 107 -15z"/>
<path d="M7292 4518 c-6 -6 -12 -25 -12 -40 0 -21 5 -28 20 -28 22 0 90 30 90
41 0 24 -79 46 -98 27z"/>
<path d="M5610 5240 c-63 -11 -155 -28 -205 -40 -99 -23 -405 -110 -474 -134
-68 -25 -73 -23 -56 24 17 49 10 54 -63 45 -96 -11 -366 -64 -388 -76 -11 -6
-28 -23 -36 -37 -29 -48 -178 -446 -170 -454 4 -3 44 16 90 44 46 27 86 48 88
45 3 -3 -26 -95 -64 -204 -38 -109 -91 -268 -116 -353 -26 -85 -58 -189 -72
-230 -45 -142 -104 -374 -104 -412 0 -27 12 -54 46 -105 72 -105 124 -171 141
-177 9 -4 83 25 177 70 288 137 640 262 825 294 58 10 108 24 112 32 5 7 23
51 40 98 94 257 117 327 109 340 -7 11 -32 7 -134 -19 -179 -46 -724 -235
-826 -286 -25 -12 -56 -26 -69 -30 -23 -7 -23 -6 -17 31 11 60 87 282 100 293
6 5 125 32 265 60 140 28 266 57 279 64 19 9 32 34 57 107 27 80 47 131 102
258 8 18 -24 15 -86 -9 -59 -22 -432 -99 -481 -99 -16 0 -30 3 -30 7 0 23 73
223 85 233 17 14 581 156 640 161 40 4 40 4 43 -33 7 -84 57 -29 173 191 45
86 100 187 121 224 35 61 43 99 21 96 -4 -1 -60 -9 -123 -19z"/>
<path d="M4075 5185 c-211 -46 -216 -48 -237 -75 -53 -72 -211 -833 -240
-1157 -7 -73 -15 -133 -18 -133 -8 0 -74 210 -135 430 -49 179 -90 379 -101
503 -4 43 -13 84 -20 92 -16 16 -25 14 -182 -37 -91 -30 -127 -46 -138 -63 -9
-13 -49 -156 -89 -317 -40 -161 -101 -396 -135 -523 -35 -126 -65 -240 -68
-253 -11 -55 -19 -20 -31 136 -33 438 -143 1092 -187 1109 -11 4 -61 -27 -374
-232 -52 -35 -103 -72 -113 -83 -18 -20 -18 -22 23 -73 51 -65 147 -253 188
-370 46 -129 100 -357 118 -493 23 -175 15 -378 -24 -561 -16 -77 -26 -144
-22 -148 4 -5 39 8 78 27 81 41 291 115 402 141 41 10 80 22 87 27 7 5 17 35
23 66 19 91 197 727 254 907 l13 40 12 -60 c68 -334 295 -1039 343 -1066 11
-6 37 5 90 40 41 27 126 77 189 112 63 35 117 67 120 73 4 5 9 135 12 290 6
369 13 411 164 1006 94 370 129 487 178 596 18 40 31 75 27 78 -10 11 -57 5
-207 -29z"/>
<path d="M2724 5056 c-3 -8 10 -38 30 -68 22 -33 43 -85 56 -138 29 -112 49
-160 59 -140 5 8 11 32 15 52 4 21 13 44 21 52 8 8 59 29 112 46 108 36 153
56 153 69 0 4 -29 11 -66 15 -81 8 -207 47 -298 92 -81 39 -75 38 -82 20z"/>
<path d="M3479 5014 c-11 -14 -8 -26 23 -83 20 -37 43 -98 51 -139 9 -41 18
-76 21 -79 9 -10 34 60 42 114 6 47 4 53 -40 117 -25 37 -46 71 -46 77 0 15
-37 10 -51 -7z"/>
<path d="M5423 4348 c-12 -14 -87 -181 -97 -215 -9 -28 7 -37 28 -14 15 16 84
167 100 219 8 25 -14 32 -31 10z"/>
</g>
</svg>
